<svg width="250" height="74" viewBox="0 0 250 74" fill="none" xmlns="http://www.w3.org/2000/svg">
<path d="M0.536011 71V69.56C8.02401 68.6 10.328 65.432 10.328 55.736V17.144C10.328 6.96799 8.31201 4.18399 0.536011 3.31999V1.784H33.56C44.12 1.784 46.904 2.168 51.608 3.992C57.464 6.10399 61.496 11.96 61.496 18.296C61.496 23.384 59 27.8 54.776 30.296C51.704 32.216 50.264 32.696 44.696 34.04C50.744 35 52.952 35.576 56.504 37.592C61.784 40.568 64.568 45.656 64.568 52.376C64.568 58.712 62.072 63.512 56.888 67.064C51.992 70.424 48.632 71 36.536 71H0.536011ZM23.48 4.088V33.08H30.2C41.336 33.08 46.712 28.376 46.712 18.392C46.712 13.304 45.272 9.46399 42.392 6.96799C39.8 4.75999 37.208 4.088 31.448 4.088H23.48ZM31.064 35.096H23.48V54.776C23.48 60.44 24.152 64.088 25.592 65.912C27.224 68.024 30.968 69.368 34.904 69.368C44.216 69.368 49.976 62.936 49.976 52.376C49.976 46.232 48.056 41.624 44.216 38.648C40.856 35.864 37.88 35.096 31.064 35.096Z" fill="#A5151C"/>
<path d="M70.985 48.728C70.985 34.904 81.257 25.112 95.849 25.112C110.441 25.112 120.809 34.904 120.809 48.536C120.809 62.264 110.345 72.056 95.849 72.056C81.353 72.056 70.985 62.264 70.985 48.728ZM95.849 27.032C87.401 27.032 83.273 34.232 83.273 48.536C83.273 62.936 87.401 70.136 95.849 70.136C104.297 70.136 108.521 62.936 108.521 48.536C108.521 34.232 104.297 27.032 95.849 27.032Z" fill="white"/>
<path d="M124.447 71V69.56C128.671 69.176 130.687 68.408 132.319 66.68C134.431 64.664 135.487 60.728 135.487 55.736V17.144C135.487 14.84 135.487 13.208 135.391 12.056C135.199 9.848 134.143 7.544 132.895 6.2C131.359 4.472 129.631 3.89599 125.887 3.31999V1.784H148.543L169.087 51.896L190.303 1.784H212.863V3.31999C205.471 4.088 203.167 7.25599 203.167 17.144V55.736C203.167 60.92 204.223 64.568 206.143 66.68C207.775 68.312 209.599 68.984 213.439 69.56V71H179.935V69.56C187.615 68.6 189.919 65.432 189.919 55.736V8.21599L164.479 69.176L163.807 70.712C163.711 71.096 163.519 71.288 163.423 71.288C163.231 71.288 163.039 71 162.847 70.616L162.271 68.792L137.695 9.17599V55.736C137.695 60.728 138.943 64.664 141.151 66.68C143.071 68.408 145.375 69.176 149.983 69.56V71H124.447Z" fill="white"/>
<path d="M216.161 71V69.56C220.001 68.984 221.729 68.408 223.265 66.68C224.993 64.568 226.049 60.536 226.049 55.736V17.144C226.049 15.032 226.049 13.304 225.953 12.056C225.761 9.752 224.897 7.544 223.841 6.2C222.305 4.376 220.577 3.512 216.641 3.31999V1.784H248.897V3.41599C241.601 4.18399 239.201 7.44799 239.201 17.24V55.736C239.201 65.432 241.409 68.504 248.897 69.56V71H216.161Z" fill="white"/>
</svg>
